<?xml version="1.0" standalone="no"?>
<!DOCTYPE svg PUBLIC "-//W3C//DTD SVG 20010904//EN"
 "http://www.w3.org/TR/2001/REC-SVG-20010904/DTD/svg10.dtd">
<svg version="1.0" xmlns="http://www.w3.org/2000/svg"
 width="300.000000pt" height="300.000000pt" viewBox="0 0 300.000000 300.000000"
 preserveAspectRatio="xMidYMid meet">
<metadata>
Created by potrace 1.14, written by Peter Selinger 2001-2017
</metadata>
<g transform="translate(0.000000,300.000000) scale(0.100000,-0.100000)"
fill="#000000" stroke="none">
<path d="M753 2342 c-43 -48 -107 -121 -143 -162 -36 -40 -139 -157 -230 -260
-326 -367 -372 -420 -368 -429 3 -8 302 -352 353 -405 11 -12 49 -55 85 -96
63 -72 103 -118 145 -164 11 -13 52 -58 90 -102 39 -43 89 -99 111 -123 l41
-45 34 39 c42 48 111 127 194 220 34 39 84 95 111 125 70 79 172 195 220 249
23 25 115 129 205 231 90 102 168 190 174 196 5 6 37 42 70 80 99 112 158 179
164 184 4 3 31 34 61 70 97 114 88 109 129 64 58 -63 175 -196 212 -239 19
-22 53 -60 75 -85 148 -161 173 -194 160 -210 -7 -8 -73 -82 -146 -165 -201
-228 -254 -287 -265 -299 -5 -6 -25 -29 -44 -51 -19 -22 -68 -78 -110 -124
-42 -46 -76 -88 -76 -94 0 -14 135 -173 154 -181 7 -4 21 4 31 17 10 13 31 37
47 54 15 17 53 59 84 94 31 35 110 125 176 199 65 74 132 150 149 169 16 19
38 44 49 55 60 63 295 335 295 341 0 4 -34 46 -76 94 -42 47 -104 116 -136
153 -33 37 -69 78 -80 90 -11 13 -34 39 -51 58 -34 37 -233 262 -283 319 -16
18 -38 43 -49 55 -11 12 -49 54 -84 94 -36 40 -67 71 -71 70 -7 -4 -101 -109
-405 -453 -126 -143 -232 -262 -235 -265 -3 -3 -36 -41 -75 -85 -38 -44 -74
-85 -80 -91 -5 -6 -37 -42 -71 -80 -136 -153 -240 -271 -269 -303 -40 -45 -39
-44 -120 -135 l-69 -78 -51 55 c-27 30 -61 67 -75 83 -42 48 -323 367 -347
394 -24 26 -24 27 27 81 8 9 40 45 71 80 111 126 472 535 506 572 34 37 34 38
16 61 -39 52 -138 165 -145 165 -4 1 -42 -39 -85 -87z"/>
</g>
</svg>
